<svg width="468" height="600" viewBox="0 0 468 600" fill="none" xmlns="http://www.w3.org/2000/svg">
<path fill-rule="evenodd" clip-rule="evenodd" d="M6.10033 27.3C0.666996 37.9667 0.666992 51.9667 0.666992 80V520C0.666992 548 0.666996 562 6.10033 572.7C10.9011 582.104 18.5556 589.747 27.967 594.533C38.6336 600 52.6337 600 80.667 600H87.3337C115.334 600 129.334 600 140.034 594.567C149.45 589.772 157.105 582.116 161.9 572.7C167.334 562.033 167.334 548.033 167.334 520V80C167.334 52 167.334 38 161.9 27.3C157.105 17.8836 149.45 10.2284 140.034 5.43334C129.367 3.47694e-06 115.367 0 87.3337 0H80.667C52.667 0 38.667 3.47694e-06 27.967 5.43334C18.5506 10.2284 10.8954 17.8836 6.10033 27.3ZM306.1 27.3C300.667 37.9667 300.667 51.9667 300.667 80V520C300.667 548 300.667 562 306.134 572.7C310.926 582.099 318.568 589.741 327.967 594.533C338.634 600 352.634 600 380.667 600H387.334C415.334 600 429.334 600 440.034 594.567C449.438 589.766 457.081 582.111 461.867 572.7C467.334 562.033 467.334 548.033 467.334 520V80C467.334 52 467.334 38 461.9 27.3C457.105 17.8836 449.45 10.2284 440.034 5.43334C429.367 3.47694e-06 415.367 0 387.334 0H380.667C352.667 0 338.667 3.47694e-06 327.967 5.43334C318.563 10.2341 310.887 17.8887 306.1 27.3Z" fill="#4ADE80"/>
</svg>
